<?xml version="1.0" encoding="utf-8"?>
<!-- Generator: Adobe Illustrator 21.0.2, SVG Export Plug-In . SVG Version: 6.00 Build 0)  -->
<svg version="1.1" id="Capa_1" xmlns="http://www.w3.org/2000/svg" xmlns:xlink="http://www.w3.org/1999/xlink" x="0px" y="0px"
	 viewBox="0 0 612 612" style="enable-background:new 0 0 612 612;" xml:space="preserve">
<g>
	<g>
		<path d="M323.1,56.2l5.6-9.6l40.2-40.2c-97.7-20.4-203.5,7.3-279.3,83.1c-106.1,106.1-118,270.6-35.8,389.8L11,522.4l137.7,19.7
			L129,404.4l-35,35C33.1,342.6,44.7,213.2,129,129C182.2,75.7,253.5,51.5,323.1,56.2z"/>
		<path d="M581.4,70L443.7,50.3L463.4,188l38.3-38.3c78.7,98.3,72.5,242.2-18.6,333.3c-61.1,61.1-146,84-224.9,68.7l-45.6,45.6
			c105.7,33.8,226.1,8.8,309.9-75.1c112.9-112.9,119.1-292,18.8-412.2L581.4,70z"/>
	</g>
</g>
<path d="M387.5,250.8c28.9,0,52.5-22.7,52.5-50.5c0-27.8-23.6-50.5-52.5-50.5S335,172.5,335,200.3
	C335,228.1,358.6,250.8,387.5,250.8z M247.5,250.8c28.9,0,52.5-22.7,52.5-50.5c0-27.8-23.6-50.5-52.5-50.5S195,172.5,195,200.3
	C195,228.1,218.6,250.8,247.5,250.8z M247.5,287.9c-41.1,0-122.5,19.4-122.5,58.9v45.5h247.5v-45.5
	C372.5,307.2,288.6,287.9,247.5,287.9z M387.5,297.1c-5.2,0-8.9,0-15,0.8c20.1,14.3,27.5,23.6,27.5,48.8v45.5h110v-45.5
	C510,307.2,428.6,297.1,387.5,297.1L387.5,297.1z"/>
</svg>
